<?xml version="1.0" encoding="utf-8"?>
<!DOCTYPE svg PUBLIC "-//W3C//DTD SVG 1.0//EN" "http://www.w3.org/TR/2001/REC-SVG-20010904/DTD/svg10.dtd">
<svg aria-labelledby="title desc" fill-rule="evenodd" height="2.001in" preserveAspectRatio="none" stroke-linecap="round" viewBox="0 0 2000 2001" width="2.0in" xmlns="http://www.w3.org/2000/svg" xmlns:xlink="http://www.w3.org/1999/xlink"><title>big brothers,computers,Internet,internet privacy,montages,persons,privacy,technology,World Wide Web</title><desc>Original keywords: big brothers,computers,Internet,internet privacy,montages,persons,privacy,technology,World Wide Web. This clipart was ripped from the Microsoft website, then uploaded to https://archive.org/details/MS_Clipart_Collection. (The original WMF file can be found within that item, under the folder MC900358963). From there, it was then converted by Trumad to svg using https://github.com/hidekatsu-izuno/wmf2svg in a bulk operation. All the converted files can be found at https://archive.org/details/MS_Clipart_Collection_SVG</desc>
<style type="text/css">
.brush0 { fill: rgb(255,255,255); }
.pen0 { stroke: rgb(0,0,0); stroke-width: 1; stroke-linejoin: round; }
.brush1 { fill: none; }
.pen1 { stroke: none; }
.brush2 { fill: rgb(0,0,0); }
.brush3 { fill: rgb(216,0,0); }
.brush4 { fill: rgb(255,191,0); }
.brush5 { fill: rgb(127,0,0); }
.brush6 { fill: rgb(255,255,191); }
.brush7 { fill: rgb(0,204,216); }
.brush8 { fill: rgb(0,170,0); }
</style>
<g>
<polygon class="pen1 brush2" points="2000,2001 2000,0 0,0 0,2001 2000,2001"/>
<polygon class="pen1 brush3" points="1267,1885 2000,1841 2000,108 1975,107 1950,107 1923,106 1896,106 1868,105 1839,105 1810,104 1780,104 1751,103 1721,103 1691,102 1661,102 1632,101 1603,101 1574,100 1547,100 1519,99 1493,99 1468,99 1444,98 1421,98 1399,98 1379,97 1361,97 1344,97 1329,97 1316,96 1305,96 1297,96 1290,96 1286,96 1285,96 1283,529 1278,990 1272,1452 1267,1885"/>
<polygon class="pen1 brush4" points="1298,817 1308,828 1319,838 1330,847 1341,856 1353,864 1364,871 1376,878 1389,885 1401,891 1413,897 1426,904 1439,910 1452,916 1465,922 1478,929 1491,936 1503,942 1514,949 1523,957 1531,965 1537,975 1541,985 1541,998 1539,1011 1532,1026 1522,1038 1509,1049 1496,1057 1481,1063 1465,1067 1448,1069 1432,1070 1431,1088 1434,1106 1439,1124 1446,1141 1457,1156 1470,1170 1485,1180 1502,1188 1491,1198 1480,1207 1469,1215 1458,1224 1448,1233 1439,1242 1431,1252 1426,1264 1425,1275 1427,1285 1433,1293 1441,1301 1451,1308 1461,1316 1471,1325 1480,1334 1486,1342 1487,1352 1487,1362 1486,1371 1479,1385 1469,1398 1459,1410 1448,1422 1437,1434 1426,1447 1417,1460 1410,1473 1407,1490 1406,1509 1407,1529 1410,1549 1413,1557 1418,1564 1424,1570 1431,1575 1439,1580 1448,1583 1456,1585 1464,1586 1486,1587 1509,1587 1532,1587 1555,1586 1579,1585 1603,1583 1627,1580 1652,1577 1676,1574 1701,1570 1726,1566 1751,1562 1776,1558 1801,1553 1826,1548 1850,1543 1851,1632 1853,1695 1854,1758 1853,1847 1853,1848 1852,1848 1852,1849 1851,1850 2000,1841 2000,268 1988,271 1976,275 1964,278 1952,282 1940,285 1929,289 1917,292 1906,296 1893,305 1870,323 1837,351 1796,385 1749,424 1697,468 1643,514 1588,562 1533,610 1480,656 1431,698 1387,737 1350,769 1322,794 1304,811 1298,817"/>
<polygon class="pen1 brush5" points="1176,156 1169,156 1158,156 1143,157 1125,158 1104,159 1079,160 1052,161 1022,162 989,164 954,166 917,167 878,169 837,172 795,174 752,176 707,178 661,181 615,183 568,186 521,189 474,191 426,194 379,197 333,199 287,202 242,205 198,208 155,210 113,213 74,216 36,218 0,221 0,1760 31,1762 65,1764 100,1766 138,1769 177,1771 218,1774 260,1776 303,1779 347,1782 391,1785 436,1788 481,1791 527,1794 572,1797 616,1800 660,1803 704,1805 746,1808 787,1811 826,1814 864,1816 900,1818 934,1821 965,1823 994,1824 1021,1826 1044,1828 1064,1829 1081,1830 1095,1830 1104,1831 1110,1831 1114,1733 1123,1559 1136,1331 1150,1070 1163,800 1173,543 1178,321 1176,156"/>
<polygon class="pen1 brush4" points="913,783 893,748 870,715 843,682 813,651 781,621 747,592 712,565 677,539 640,514 604,491 569,470 535,450 503,433 473,416 446,402 422,390 443,386 463,382 483,378 504,374 524,370 544,366 563,362 583,358 603,355 623,351 643,348 664,346 684,344 705,342 726,341 747,340 786,370 823,400 858,428 891,455 922,482 951,509 978,536 1003,563 1026,591 1047,619 1065,648 1082,679 1096,711 1108,745 1118,781 1125,819 1120,832 1108,865 1091,915 1071,975 1050,1040 1030,1103 1014,1161 1005,1206 996,1212 986,1220 974,1228 961,1237 948,1247 933,1258 918,1268 902,1279 886,1289 870,1300 855,1309 839,1319 824,1327 809,1334 796,1340 783,1345 816,1279 843,1196 867,1105 885,1013 899,927 908,855 913,805 913,783"/>
<polygon class="pen1 brush2" points="304,473 313,478 323,483 333,488 344,494 355,499 366,505 378,511 389,517 401,523 414,529 426,535 438,542 451,549 464,556 476,563 489,570 501,577 514,584 526,592 538,599 550,607 562,615 574,623 586,631 601,642 616,653 630,664 644,676 658,688 671,700 683,713 695,726 706,739 717,752 727,766 736,780 744,795 751,810 758,825 763,840 771,872 775,905 773,940 766,976 765,983 763,995 761,1011 758,1032 755,1055 750,1081 743,1108 735,1135 727,1157 718,1178 708,1199 696,1218 682,1235 667,1250 649,1263 630,1273 622,1276 613,1279 604,1280 595,1282 585,1282 575,1282 565,1282 554,1280 540,1277 525,1272 511,1266 497,1259 483,1251 468,1242 454,1232 440,1221 427,1211 413,1200 399,1189 386,1178 373,1168 360,1158 347,1149 335,1141 320,1130 307,1118 295,1105 284,1092 274,1078 266,1063 258,1048 251,1033 247,1023 242,1013 239,1002 235,992 231,982 227,972 223,962 219,952 218,950 217,947 216,944 215,942 212,888 215,828 223,764 236,699 251,635 268,574 286,520 304,473"/>
<polygon class="pen1 brush6" points="208,928 210,931 211,935 213,938 215,942 216,944 217,947 218,950 219,952 223,962 227,972 231,982 235,992 239,1002 242,1013 247,1023 251,1033 258,1048 266,1063 274,1078 284,1092 295,1105 307,1118 320,1130 335,1141 347,1149 360,1158 373,1168 386,1178 399,1189 413,1200 427,1211 440,1221 454,1232 468,1242 483,1251 497,1259 511,1266 525,1272 540,1277 554,1280 565,1282 575,1282 585,1282 595,1282 604,1280 613,1279 622,1276 630,1273 649,1263 667,1250 682,1235 696,1218 708,1199 718,1178 727,1157 735,1135 743,1108 750,1081 755,1055 758,1032 761,1011 763,995 765,983 766,976 773,940 775,905 771,872 763,840 758,825 751,810 744,795 736,780 727,766 717,752 706,739 695,726 683,713 671,700 658,688 644,676 630,664 616,653 601,642 586,631 574,623 562,615 550,607 538,599 526,592 514,584 501,577 489,570 476,563 464,556 451,549 438,542 426,535 414,529 401,523 389,517 378,511 366,505 355,499 344,494 333,488 323,483 313,478 304,473 293,467 283,462 274,456 266,451 258,446 251,441 245,437 240,432 256,420 271,409 285,399 299,389 314,381 330,373 348,367 369,362 371,363 374,365 378,368 385,371 392,375 401,379 411,384 422,390 446,402 473,416 503,433 535,450 569,470 604,491 640,514 677,539 712,565 747,592 781,621 813,651 843,682 870,715 893,748 913,783 913,805 908,855 899,927 885,1013 867,1105 843,1196 816,1279 783,1345 783,1346 784,1346 784,1346 784,1347 775,1349 759,1353 736,1358 706,1364 672,1371 634,1379 593,1388 550,1397 506,1407 462,1416 418,1426 377,1435 339,1443 304,1451 274,1457 250,1463 238,1440 226,1416 213,1391 199,1367 185,1342 171,1317 156,1292 142,1267 127,1242 113,1216 98,1191 85,1166 71,1142 58,1117 46,1093 35,1069 35,1065 38,1059 44,1052 51,1044 61,1035 73,1025 86,1014 100,1004 115,993 130,982 145,971 159,961 173,952 186,943 198,935 208,928"/>
<polygon class="pen1 brush4" points="144,1160 154,1158 163,1152 169,1143 172,1131 171,1119 166,1108 159,1101 149,1098 139,1100 131,1106 125,1115 122,1127 123,1140 127,1150 135,1157 144,1160"/>
<polygon class="pen1 brush4" points="187,1232 197,1230 205,1224 211,1215 214,1203 213,1191 209,1180 201,1173 192,1170 182,1172 174,1178 167,1187 164,1199 165,1212 170,1222 177,1229 187,1232"/>
<polygon class="pen1 brush4" points="301,1279 311,1277 319,1271 325,1262 328,1250 327,1237 322,1227 315,1220 305,1217 295,1219 287,1225 281,1234 278,1246 279,1258 284,1268 291,1276 301,1279"/>
<polygon class="pen1 brush4" points="256,1217 266,1215 274,1209 280,1200 283,1188 282,1176 278,1165 271,1158 261,1155 251,1157 243,1163 236,1172 233,1184 234,1197 239,1207 246,1214 256,1217"/>
<polygon class="pen1 brush4" points="217,1152 227,1150 235,1144 241,1134 244,1122 243,1110 238,1099 231,1092 221,1089 211,1091 203,1097 197,1106 194,1118 195,1131 200,1141 207,1149 217,1152"/>
<polygon class="pen1 brush4" points="174,1082 184,1080 193,1074 199,1064 202,1052 201,1040 196,1029 189,1022 179,1019 169,1021 161,1027 155,1037 152,1049 153,1061 157,1071 164,1079 174,1082"/>
<polygon class="pen1 brush4" points="272,1367 282,1365 290,1359 296,1349 299,1337 298,1325 294,1314 286,1307 277,1304 267,1306 259,1312 252,1322 249,1334 250,1346 255,1356 262,1364 272,1367"/>
<polygon class="pen1 brush4" points="229,1301 239,1299 247,1293 253,1284 256,1272 255,1260 250,1249 243,1242 233,1239 223,1241 215,1247 209,1256 206,1268 207,1280 212,1290 219,1298 229,1301"/>
<polygon class="pen1 brush4" points="340,1344 350,1342 359,1336 365,1327 368,1315 367,1303 362,1292 355,1285 345,1282 335,1284 327,1290 321,1299 318,1311 319,1323 323,1333 331,1341 340,1344"/>
<polygon class="pen1 brush4" points="107,1105 117,1103 126,1097 132,1088 135,1076 134,1063 129,1053 122,1046 112,1043 102,1045 94,1051 88,1060 85,1072 86,1084 90,1094 98,1102 107,1105"/>
<polygon class="pen1 brush7" points="706,941 694,918 688,894 686,870 688,845 691,837 695,829 699,822 704,816 700,797 694,779 686,762 676,746 669,746 663,745 656,744 650,742 644,739 638,736 633,732 628,727 624,723 620,720 615,717 611,714 606,711 602,708 598,705 596,701 595,697 594,693 594,689 593,685 585,681 577,678 569,675 561,672 553,670 544,668 536,667 527,666 514,666 501,666 486,667 471,668 455,670 440,672 424,674 410,676 395,679 382,681 370,683 360,685 352,687 345,688 341,689 340,689 329,697 315,708 301,720 287,734 274,748 262,763 254,777 249,791 246,818 246,849 248,882 252,915 257,946 264,973 270,995 277,1009 289,1024 302,1038 317,1051 333,1064 349,1076 367,1086 385,1094 403,1101 403,1101 404,1100 404,1100 404,1100 408,1100 413,1097 419,1095 425,1095 430,1098 432,1097 434,1095 436,1094 439,1093 453,1094 467,1095 481,1095 495,1095 509,1096 522,1097 536,1098 550,1101 564,1098 578,1093 591,1089 604,1083 617,1076 628,1069 640,1061 650,1052 661,1042 672,1030 682,1019 691,1006 698,993 704,979 709,965 711,950 711,949 711,948 711,948 711,947 710,945 708,944 707,942 706,941"/>
<polygon class="pen1 brush8" points="349,704 358,700 366,696 374,693 382,690 390,687 398,685 407,683 417,681 422,680 427,680 432,679 437,679 442,679 448,679 452,678 457,678 462,689 461,701 456,713 449,725 449,728 453,731 457,734 462,737 467,740 471,742 474,743 477,744 480,743 483,742 487,741 493,739 501,736 506,730 509,723 509,715 507,708 504,701 502,695 504,689 507,687 513,686 518,686 524,687 528,689 532,691 535,693 539,695 543,698 546,700 550,702 554,704 563,708 571,712 577,717 582,723 583,729 582,734 578,737 572,739 565,741 558,742 552,744 546,746 543,757 539,767 534,778 530,788 525,799 520,809 516,819 512,829 510,834 509,835 507,835 503,839 497,848 494,854 491,857 485,854 482,849 483,845 484,840 482,834 479,833 473,833 465,833 456,834 447,835 439,836 433,838 430,840 429,848 429,854 431,858 434,862 441,865 450,867 462,869 477,871 488,874 500,878 512,884 524,891 534,899 545,908 553,918 561,928 564,933 567,936 567,940 566,946 562,956 553,966 544,975 537,984 526,1001 517,1016 508,1031 500,1044 492,1057 483,1068 474,1077 464,1086 454,1071 451,1056 452,1041 456,1026 456,1020 456,1012 455,1004 453,999 448,993 442,987 437,982 432,978 426,973 421,969 414,965 407,960 397,947 395,930 396,916 397,908 399,904 401,900 403,896 407,892 413,890 420,888 424,885 425,881 423,877 419,870 414,862 409,854 405,846 401,840 400,836 401,835 391,830 388,826 385,821 377,813 372,808 369,803 366,797 364,791 363,781 362,772 361,763 359,754 356,749 353,741 349,732 346,728 341,731 338,737 336,742 333,742 331,740 331,735 331,730 332,726 335,720 339,714 344,708 349,704"/>
<polygon class="pen1 brush8" points="628,727 633,732 638,736 644,739 650,742 656,744 663,745 669,746 676,746 673,742 669,738 665,734 662,730 658,726 654,722 649,718 645,714 639,710 632,706 626,702 619,698 613,695 606,691 600,688 593,685 594,689 594,693 595,697 596,701 598,705 602,708 606,711 611,714 615,717 620,720 624,723 628,727"/>
<polygon class="pen1 brush8" points="709,852 708,843 707,834 706,825 704,816 699,822 695,829 691,837 688,845 686,870 688,894 694,918 706,941 707,942 708,944 710,945 711,947 712,923 712,899 711,876 709,852"/>
<polygon class="pen1 brush8" points="430,1098 425,1095 419,1095 413,1097 408,1100 404,1100 404,1100 404,1100 403,1101 403,1101 410,1103 416,1105 422,1106 429,1107 443,1108 458,1109 473,1109 489,1109 504,1108 520,1106 535,1104 550,1101 536,1098 522,1097 509,1096 495,1095 481,1095 467,1095 453,1094 439,1093 436,1094 434,1095 432,1097 430,1098"/>
<polygon class="pen1 brush3" points="543,1689 543,1689 543,1689 543,1689 543,1689 548,1666 555,1633 563,1594 573,1552 582,1512 589,1476 595,1449 597,1434 599,1414 602,1400 604,1389 605,1375 604,1373 602,1370 598,1368 594,1366 590,1366 585,1366 580,1369 575,1374 570,1391 565,1408 561,1425 556,1445 554,1454 552,1463 550,1472 548,1481 544,1478 541,1473 538,1469 535,1466 537,1438 542,1382 543,1325 536,1292 514,1294 510,1310 508,1323 507,1337 506,1353 500,1382 492,1417 484,1449 478,1465 475,1462 468,1456 461,1449 458,1445 459,1409 463,1357 466,1308 464,1279 460,1275 454,1272 448,1271 443,1272 436,1289 430,1308 425,1328 422,1347 417,1375 410,1408 404,1435 401,1447 397,1443 393,1437 389,1431 387,1426 386,1410 385,1373 384,1336 384,1316 386,1304 384,1294 376,1287 364,1286 362,1290 359,1301 356,1317 352,1339 350,1356 347,1374 344,1394 341,1415 339,1433 336,1449 333,1466 330,1486 327,1476 321,1457 312,1435 301,1416 299,1414 295,1412 289,1410 283,1408 276,1407 269,1406 264,1405 261,1406 264,1412 269,1430 275,1455 276,1484 281,1503 287,1519 295,1533 302,1545 309,1557 315,1569 319,1581 321,1596 317,1625 311,1658 306,1688 301,1706 296,1725 291,1743 286,1761 280,1778 294,1779 308,1780 322,1781 337,1782 351,1783 365,1784 380,1785 394,1785 409,1786 423,1787 438,1788 453,1789 467,1790 482,1791 496,1792 511,1793 517,1774 523,1756 528,1739 533,1725 536,1713 539,1705 541,1699 542,1697 542,1695 543,1692 543,1690 543,1689"/>
<polygon class="pen1 brush3" points="126,1422 127,1413 125,1400 123,1387 120,1381 112,1374 102,1368 91,1362 80,1357 70,1353 61,1350 55,1348 52,1346 63,1346 73,1345 81,1344 89,1343 97,1343 105,1342 114,1341 123,1341 134,1340 145,1340 155,1339 165,1339 174,1338 183,1338 192,1337 200,1337 211,1336 222,1335 231,1334 238,1333 244,1332 249,1331 252,1330 254,1329 255,1322 254,1316 252,1312 248,1308 244,1306 239,1305 233,1305 226,1306 220,1306 206,1304 189,1303 169,1301 150,1299 133,1297 121,1295 116,1294 111,1291 106,1287 101,1283 97,1278 100,1278 109,1276 121,1275 137,1273 153,1271 170,1269 185,1267 198,1266 208,1265 218,1265 228,1263 238,1262 247,1260 257,1257 266,1255 275,1252 276,1247 276,1240 274,1234 270,1230 266,1228 259,1227 251,1226 241,1225 230,1225 217,1224 204,1224 191,1224 177,1224 164,1224 151,1224 139,1224 128,1224 118,1223 109,1223 103,1222 100,1219 94,1211 88,1203 86,1200 91,1198 102,1195 117,1193 134,1190 152,1187 170,1185 186,1183 199,1182 208,1182 215,1182 222,1182 229,1182 236,1182 243,1182 251,1181 259,1179 262,1157 258,1154 251,1151 242,1149 231,1147 218,1146 204,1145 189,1144 174,1144 158,1143 144,1143 130,1143 118,1143 107,1143 98,1143 92,1143 89,1143 86,1140 82,1136 78,1133 75,1129 80,1128 84,1128 89,1127 93,1126 98,1125 102,1125 107,1124 112,1124 122,1122 132,1121 141,1119 150,1118 159,1116 167,1115 176,1113 185,1111 193,1102 194,1093 190,1085 185,1081 178,1080 171,1080 166,1081 161,1082 154,1083 147,1084 138,1084 127,1084 121,1084 111,1085 98,1087 82,1088 63,1091 43,1093 22,1096 0,1099 0,1375 5,1378 10,1382 16,1385 22,1388 28,1391 34,1394 41,1397 49,1399 64,1401 78,1403 91,1407 103,1411 112,1415 120,1419 124,1421 126,1422"/>
<polygon class="pen1 brush2" points="1720,842 1704,838 1685,831 1664,822 1642,812 1623,802 1607,793 1597,787 1594,783 1599,779 1612,768 1631,751 1655,732 1680,713 1705,694 1728,679 1747,670 1759,667 1772,665 1786,666 1800,669 1814,673 1827,678 1841,684 1854,691 1866,698 1877,704 1887,711 1896,717 1903,722 1908,726 1912,729 1913,730 1917,732 1924,736 1933,743 1943,751 1952,759 1960,766 1966,771 1968,773 1968,776 1965,780 1960,785 1952,790 1943,795 1933,801 1921,807 1909,813 1896,819 1883,825 1870,830 1857,835 1844,840 1833,843 1823,845 1814,847 1801,849 1789,849 1778,849 1767,849 1757,848 1746,846 1733,844 1720,842"/>
<polygon class="pen1 brush6" points="1634,776 1635,775 1644,768 1653,761 1662,754 1672,747 1681,740 1690,733 1699,726 1709,720 1719,714 1729,709 1739,705 1749,701 1760,698 1771,696 1783,695 1795,695 1811,698 1827,703 1845,711 1863,721 1880,732 1897,743 1911,754 1924,764 1919,768 1909,775 1895,783 1878,791 1860,800 1842,807 1824,813 1809,816 1798,817 1786,818 1774,818 1763,818 1751,817 1740,816 1728,815 1717,813 1706,810 1695,807 1684,804 1673,799 1663,794 1653,789 1643,783 1634,776"/>
<polygon class="pen1 brush2" points="1699,780 1695,768 1694,755 1696,745 1704,737 1708,735 1713,734 1717,734 1722,734 1727,734 1732,734 1737,734 1742,734 1745,735 1749,738 1753,741 1758,742 1758,757 1757,771 1753,782 1742,788 1736,790 1729,792 1722,793 1716,793 1710,792 1705,790 1701,786 1699,780"/>
<polygon class="pen1 brush7" points="1757,557 1775,556 1794,557 1814,561 1834,567 1854,574 1874,583 1893,592 1912,602 1929,612 1945,622 1959,631 1971,640 1981,647 1988,653 1992,657 1993,659 1990,661 1986,662 1982,661 1978,659 1977,658 1972,656 1966,653 1957,648 1946,643 1933,637 1918,632 1903,625 1886,620 1869,614 1851,609 1832,605 1814,602 1796,600 1778,600 1761,601 1751,603 1739,607 1727,612 1714,618 1700,625 1686,633 1672,641 1658,649 1645,657 1632,665 1621,672 1611,677 1602,682 1595,686 1590,687 1588,687 1588,685 1591,680 1596,673 1603,665 1613,656 1623,645 1635,634 1649,623 1662,611 1677,600 1691,589 1706,580 1720,571 1733,565 1746,560 1757,557"/>
<polygon class="pen1 brush2" points="1546,738 1546,762 1498,762 1498,741 870,708 870,673 805,673 805,891 870,891 870,868 1498,840 1498,823 1546,823 1546,839 1587,839 1587,738 1546,738"/>
</g>
</svg>